<mxfile host="app.diagrams.net" modified="2023-05-28T11:49:34.853Z" agent="Mozilla/5.0 (Windows NT 10.0; Win64; x64) AppleWebKit/537.36 (KHTML, like Gecko) Chrome/113.0.0.0 Safari/537.36" etag="Kynz5uM7o5X4v-4UwMZB" version="21.3.4" type="github">
  <diagram name="Page-1" id="rHoU7v8-ZEI5H9G3nI4m">
    <mxGraphModel dx="2440" dy="1360" grid="1" gridSize="10" guides="1" tooltips="1" connect="1" arrows="1" fold="1" page="1" pageScale="1" pageWidth="850" pageHeight="1100" math="0" shadow="0">
      <root>
        <mxCell id="0" />
        <mxCell id="1" parent="0" />
        <mxCell id="AalJC_cm3Un6Nt6Fhr5J-1" value="AIS" style="swimlane;whiteSpace=wrap;html=1;fillColor=#dae8fc;strokeColor=#6c8ebf;" vertex="1" parent="1">
          <mxGeometry x="70" y="120" width="730" height="740" as="geometry" />
        </mxCell>
        <mxCell id="AalJC_cm3Un6Nt6Fhr5J-3" value="AIS&lt;br&gt;Gateway" style="rhombus;whiteSpace=wrap;html=1;fillColor=#fa6800;fontColor=#000000;strokeColor=#C73500;" vertex="1" parent="AalJC_cm3Un6Nt6Fhr5J-1">
          <mxGeometry x="30" y="290" width="190" height="80" as="geometry" />
        </mxCell>
        <mxCell id="AalJC_cm3Un6Nt6Fhr5J-4" value="Vector&lt;br&gt;Database" style="shape=cylinder3;whiteSpace=wrap;html=1;boundedLbl=1;backgroundOutline=1;size=15;fillColor=#cce5ff;strokeColor=#36393d;" vertex="1" parent="AalJC_cm3Un6Nt6Fhr5J-1">
          <mxGeometry x="540" y="280" width="60" height="80" as="geometry" />
        </mxCell>
        <mxCell id="AalJC_cm3Un6Nt6Fhr5J-5" value="Embedding&amp;nbsp;&lt;br&gt;Service" style="ellipse;whiteSpace=wrap;html=1;fillColor=#e1d5e7;strokeColor=#9673a6;" vertex="1" parent="AalJC_cm3Un6Nt6Fhr5J-1">
          <mxGeometry x="295" y="30" width="120" height="80" as="geometry" />
        </mxCell>
        <mxCell id="AalJC_cm3Un6Nt6Fhr5J-6" value="Store&lt;br&gt;Service" style="ellipse;whiteSpace=wrap;html=1;fillColor=#e1d5e7;strokeColor=#9673a6;" vertex="1" parent="AalJC_cm3Un6Nt6Fhr5J-1">
          <mxGeometry x="290" y="310" width="120" height="80" as="geometry" />
        </mxCell>
        <mxCell id="AalJC_cm3Un6Nt6Fhr5J-9" value="&lt;br&gt;Completion&lt;br style=&quot;border-color: var(--border-color);&quot;&gt;Service" style="ellipse;whiteSpace=wrap;html=1;fillColor=#e1d5e7;strokeColor=#9673a6;" vertex="1" parent="AalJC_cm3Un6Nt6Fhr5J-1">
          <mxGeometry x="295" y="170" width="120" height="80" as="geometry" />
        </mxCell>
        <mxCell id="AalJC_cm3Un6Nt6Fhr5J-8" value="Search&lt;br style=&quot;border-color: var(--border-color);&quot;&gt;Service" style="ellipse;whiteSpace=wrap;html=1;fillColor=#e1d5e7;strokeColor=#9673a6;" vertex="1" parent="AalJC_cm3Un6Nt6Fhr5J-1">
          <mxGeometry x="280" y="460" width="120" height="80" as="geometry" />
        </mxCell>
        <mxCell id="AalJC_cm3Un6Nt6Fhr5J-7" value="initial &amp;amp; maintain&lt;br&gt;Service" style="ellipse;whiteSpace=wrap;html=1;fillColor=#e1d5e7;strokeColor=#9673a6;" vertex="1" parent="AalJC_cm3Un6Nt6Fhr5J-1">
          <mxGeometry x="280" y="600" width="120" height="80" as="geometry" />
        </mxCell>
        <mxCell id="AalJC_cm3Un6Nt6Fhr5J-11" value="" style="endArrow=classic;html=1;rounded=0;exitX=0.5;exitY=0;exitDx=0;exitDy=0;entryX=0;entryY=0.5;entryDx=0;entryDy=0;" edge="1" parent="AalJC_cm3Un6Nt6Fhr5J-1" source="AalJC_cm3Un6Nt6Fhr5J-3" target="AalJC_cm3Un6Nt6Fhr5J-5">
          <mxGeometry width="50" height="50" relative="1" as="geometry">
            <mxPoint x="150" y="220" as="sourcePoint" />
            <mxPoint x="200" y="170" as="targetPoint" />
          </mxGeometry>
        </mxCell>
        <mxCell id="AalJC_cm3Un6Nt6Fhr5J-12" value="" style="endArrow=classic;html=1;rounded=0;exitX=1;exitY=0;exitDx=0;exitDy=0;entryX=0;entryY=0.5;entryDx=0;entryDy=0;" edge="1" parent="AalJC_cm3Un6Nt6Fhr5J-1" source="AalJC_cm3Un6Nt6Fhr5J-3" target="AalJC_cm3Un6Nt6Fhr5J-9">
          <mxGeometry width="50" height="50" relative="1" as="geometry">
            <mxPoint x="135" y="300" as="sourcePoint" />
            <mxPoint x="305" y="80" as="targetPoint" />
          </mxGeometry>
        </mxCell>
        <mxCell id="AalJC_cm3Un6Nt6Fhr5J-13" value="" style="endArrow=classic;html=1;rounded=0;exitX=1;exitY=0.5;exitDx=0;exitDy=0;entryX=0;entryY=0.5;entryDx=0;entryDy=0;" edge="1" parent="AalJC_cm3Un6Nt6Fhr5J-1" source="AalJC_cm3Un6Nt6Fhr5J-3" target="AalJC_cm3Un6Nt6Fhr5J-6">
          <mxGeometry width="50" height="50" relative="1" as="geometry">
            <mxPoint x="183" y="320" as="sourcePoint" />
            <mxPoint x="305" y="220" as="targetPoint" />
          </mxGeometry>
        </mxCell>
        <mxCell id="AalJC_cm3Un6Nt6Fhr5J-14" value="" style="endArrow=classic;html=1;rounded=0;exitX=1;exitY=1;exitDx=0;exitDy=0;entryX=-0.006;entryY=0.308;entryDx=0;entryDy=0;entryPerimeter=0;" edge="1" parent="AalJC_cm3Un6Nt6Fhr5J-1" source="AalJC_cm3Un6Nt6Fhr5J-3" target="AalJC_cm3Un6Nt6Fhr5J-8">
          <mxGeometry width="50" height="50" relative="1" as="geometry">
            <mxPoint x="230" y="340" as="sourcePoint" />
            <mxPoint x="300" y="360" as="targetPoint" />
          </mxGeometry>
        </mxCell>
        <mxCell id="AalJC_cm3Un6Nt6Fhr5J-15" value="" style="endArrow=classic;html=1;rounded=0;exitX=0.5;exitY=1;exitDx=0;exitDy=0;entryX=0;entryY=0;entryDx=0;entryDy=0;" edge="1" parent="AalJC_cm3Un6Nt6Fhr5J-1" source="AalJC_cm3Un6Nt6Fhr5J-3" target="AalJC_cm3Un6Nt6Fhr5J-7">
          <mxGeometry width="50" height="50" relative="1" as="geometry">
            <mxPoint x="183" y="360" as="sourcePoint" />
            <mxPoint x="289" y="495" as="targetPoint" />
          </mxGeometry>
        </mxCell>
        <mxCell id="AalJC_cm3Un6Nt6Fhr5J-18" value="" style="endArrow=classic;html=1;rounded=0;exitX=1;exitY=0.5;exitDx=0;exitDy=0;entryX=0;entryY=0;entryDx=0;entryDy=52.5;entryPerimeter=0;" edge="1" parent="AalJC_cm3Un6Nt6Fhr5J-1" source="AalJC_cm3Un6Nt6Fhr5J-6" target="AalJC_cm3Un6Nt6Fhr5J-4">
          <mxGeometry width="50" height="50" relative="1" as="geometry">
            <mxPoint x="470" y="380" as="sourcePoint" />
            <mxPoint x="540" y="400" as="targetPoint" />
          </mxGeometry>
        </mxCell>
        <mxCell id="AalJC_cm3Un6Nt6Fhr5J-22" value="" style="endArrow=classic;html=1;rounded=0;exitX=1;exitY=0.5;exitDx=0;exitDy=0;entryX=0;entryY=1;entryDx=0;entryDy=-15;entryPerimeter=0;" edge="1" parent="AalJC_cm3Un6Nt6Fhr5J-1" source="AalJC_cm3Un6Nt6Fhr5J-8" target="AalJC_cm3Un6Nt6Fhr5J-4">
          <mxGeometry width="50" height="50" relative="1" as="geometry">
            <mxPoint x="415" y="210" as="sourcePoint" />
            <mxPoint x="485" y="230" as="targetPoint" />
          </mxGeometry>
        </mxCell>
        <mxCell id="AalJC_cm3Un6Nt6Fhr5J-23" value="" style="endArrow=classic;html=1;rounded=0;exitX=1;exitY=0.5;exitDx=0;exitDy=0;entryX=0.011;entryY=0.9;entryDx=0;entryDy=0;entryPerimeter=0;" edge="1" parent="AalJC_cm3Un6Nt6Fhr5J-1" source="AalJC_cm3Un6Nt6Fhr5J-7" target="AalJC_cm3Un6Nt6Fhr5J-4">
          <mxGeometry width="50" height="50" relative="1" as="geometry">
            <mxPoint x="440" y="620" as="sourcePoint" />
            <mxPoint x="510" y="640" as="targetPoint" />
          </mxGeometry>
        </mxCell>
        <mxCell id="AalJC_cm3Un6Nt6Fhr5J-28" value="AWS" style="swimlane;whiteSpace=wrap;html=1;fillColor=#fff2cc;strokeColor=#d6b656;" vertex="1" parent="1">
          <mxGeometry x="50" y="45" width="1290" height="890" as="geometry" />
        </mxCell>
        <mxCell id="AalJC_cm3Un6Nt6Fhr5J-2" value="" style="outlineConnect=0;dashed=0;verticalLabelPosition=bottom;verticalAlign=top;align=center;html=1;shape=mxgraph.aws3.cloud_2;fillColor=#F58534;gradientColor=none;" vertex="1" parent="AalJC_cm3Un6Nt6Fhr5J-28">
          <mxGeometry y="-5" width="75" height="75" as="geometry" />
        </mxCell>
        <mxCell id="AalJC_cm3Un6Nt6Fhr5J-29" value="Sagemaker" style="swimlane;whiteSpace=wrap;html=1;fillColor=#dae8fc;strokeColor=#6c8ebf;" vertex="1" parent="AalJC_cm3Un6Nt6Fhr5J-28">
          <mxGeometry x="870" y="75" width="310" height="375" as="geometry" />
        </mxCell>
        <mxCell id="AalJC_cm3Un6Nt6Fhr5J-30" value="Embedding endpoint" style="rounded=1;whiteSpace=wrap;html=1;fillColor=#e1d5e7;strokeColor=#9673a6;" vertex="1" parent="AalJC_cm3Un6Nt6Fhr5J-29">
          <mxGeometry x="95" y="102.5" width="120" height="60" as="geometry" />
        </mxCell>
        <mxCell id="AalJC_cm3Un6Nt6Fhr5J-33" value="Completion endpoint" style="rounded=1;whiteSpace=wrap;html=1;fillColor=#e1d5e7;strokeColor=#9673a6;" vertex="1" parent="AalJC_cm3Un6Nt6Fhr5J-29">
          <mxGeometry x="95" y="212.5" width="120" height="60" as="geometry" />
        </mxCell>
        <mxCell id="AalJC_cm3Un6Nt6Fhr5J-34" value="" style="endArrow=classic;html=1;rounded=0;exitX=1;exitY=0.5;exitDx=0;exitDy=0;entryX=0;entryY=0.5;entryDx=0;entryDy=0;" edge="1" parent="1" source="AalJC_cm3Un6Nt6Fhr5J-5" target="AalJC_cm3Un6Nt6Fhr5J-30">
          <mxGeometry width="50" height="50" relative="1" as="geometry">
            <mxPoint x="730" y="240" as="sourcePoint" />
            <mxPoint x="800" y="260" as="targetPoint" />
          </mxGeometry>
        </mxCell>
        <mxCell id="AalJC_cm3Un6Nt6Fhr5J-17" value="" style="endArrow=classic;html=1;rounded=0;exitX=1;exitY=0.5;exitDx=0;exitDy=0;entryX=0;entryY=0.5;entryDx=0;entryDy=0;" edge="1" parent="1" source="AalJC_cm3Un6Nt6Fhr5J-9" target="AalJC_cm3Un6Nt6Fhr5J-33">
          <mxGeometry width="50" height="50" relative="1" as="geometry">
            <mxPoint x="720" y="230" as="sourcePoint" />
            <mxPoint x="790" y="250" as="targetPoint" />
          </mxGeometry>
        </mxCell>
        <mxCell id="AalJC_cm3Un6Nt6Fhr5J-35" value="Azure" style="swimlane;whiteSpace=wrap;html=1;fillColor=#fff2cc;strokeColor=#d6b656;startSize=23;" vertex="1" parent="1">
          <mxGeometry x="1430" y="40" width="180" height="590" as="geometry" />
        </mxCell>
        <mxCell id="AalJC_cm3Un6Nt6Fhr5J-36" value="gpt-35-turbo" style="rounded=1;whiteSpace=wrap;html=1;fillColor=#e1d5e7;strokeColor=#9673a6;" vertex="1" parent="AalJC_cm3Un6Nt6Fhr5J-35">
          <mxGeometry x="40" y="330" width="120" height="60" as="geometry" />
        </mxCell>
        <mxCell id="AalJC_cm3Un6Nt6Fhr5J-37" value="Ada-002" style="rounded=1;whiteSpace=wrap;html=1;fillColor=#e1d5e7;strokeColor=#9673a6;" vertex="1" parent="AalJC_cm3Un6Nt6Fhr5J-35">
          <mxGeometry x="40" y="230" width="120" height="60" as="geometry" />
        </mxCell>
        <mxCell id="AalJC_cm3Un6Nt6Fhr5J-39" value="" style="curved=1;endArrow=classic;html=1;rounded=0;entryX=0;entryY=0.5;entryDx=0;entryDy=0;" edge="1" parent="1" source="AalJC_cm3Un6Nt6Fhr5J-9" target="AalJC_cm3Un6Nt6Fhr5J-36">
          <mxGeometry width="50" height="50" relative="1" as="geometry">
            <mxPoint x="1080" y="630" as="sourcePoint" />
            <mxPoint x="1130" y="580" as="targetPoint" />
            <Array as="points">
              <mxPoint x="920" y="510" />
              <mxPoint x="1080" y="580" />
            </Array>
          </mxGeometry>
        </mxCell>
      </root>
    </mxGraphModel>
  </diagram>
</mxfile>
